<svg width="30" height="30" viewBox="0 0 30 30" fill="none" xmlns="http://www.w3.org/2000/svg">
<path fill-rule="evenodd" clip-rule="evenodd" d="M15 30C23.2843 30 30 23.2843 30 15C30 6.71573 23.2843 0 15 0C6.71573 0 0 6.71573 0 15C0 23.2843 6.71573 30 15 30ZM15.5302 21.3918C16.1159 21.9776 17.0657 21.9776 17.6515 21.3918C18.2373 20.806 18.2373 19.8562 17.6515 19.2705L13.4088 15.0278L17.6515 10.7852C18.2373 10.1994 18.2373 9.24964 17.6515 8.66385C17.0657 8.07807 16.1159 8.07807 15.5302 8.66385L10.2269 13.9672C9.64107 14.5529 9.64107 15.5027 10.2269 16.0885L15.5302 21.3918Z" fill="#D9D9D9"/>
</svg>
