<svg width="47" height="45" viewBox="0 0 47 45" fill="none" xmlns="http://www.w3.org/2000/svg">
<rect x="0.492432" width="46.0153" height="45" rx="8" fill="#FF1616"/>
<path d="M17.4924 26C17.2585 26.0047 17.0303 25.9272 16.8476 25.7811C16.6649 25.6349 16.5392 25.4293 16.4924 25.2L14.1524 13.41C14.0161 12.7305 13.6488 12.1192 13.1129 11.6799C12.5769 11.2406 11.9054 11.0003 11.2124 11H9.49243C9.22722 11 8.97286 10.8946 8.78532 10.7071C8.59779 10.5196 8.49243 10.2652 8.49243 10C8.49243 9.73478 8.59779 9.48043 8.78532 9.29289C8.97286 9.10536 9.22722 9 9.49243 9H11.2124C12.3651 8.99976 13.4824 9.39778 14.3753 10.1267C15.2683 10.8556 15.8819 11.8706 16.1124 13L18.4924 24.8C18.5215 24.9315 18.5237 25.0676 18.4989 25.1999C18.474 25.3323 18.4227 25.4583 18.348 25.5704C18.2733 25.6825 18.1767 25.7783 18.0641 25.8521C17.9514 25.9259 17.825 25.9762 17.6924 26H17.4924Z" fill="white"/>
<path d="M18.4924 33H16.6324C15.5718 32.9934 14.5542 32.5801 13.7894 31.8451C13.0247 31.1102 12.5712 30.1098 12.5224 29.0503C12.4737 27.9908 12.8335 26.953 13.5275 26.151C14.2215 25.349 15.1969 24.8439 16.2524 24.74L34.6624 23.07L36.2724 15H15.4924C15.2272 15 14.9729 14.8946 14.7853 14.7071C14.5978 14.5196 14.4924 14.2652 14.4924 14C14.4924 13.7348 14.5978 13.4804 14.7853 13.2929C14.9729 13.1054 15.2272 13 15.4924 13H37.4924C37.6401 13.001 37.7858 13.0347 37.9189 13.0986C38.0521 13.1626 38.1694 13.2553 38.2624 13.37C38.3602 13.4825 38.4316 13.6154 38.4714 13.759C38.5112 13.9026 38.5184 14.0533 38.4924 14.2L36.4924 24.2C36.4502 24.4115 36.3407 24.6037 36.1803 24.7478C36.0199 24.892 35.8172 24.9805 35.6024 25L16.4324 26.74C15.8675 26.7665 15.3363 27.0164 14.9556 27.4346C14.5749 27.8528 14.3759 28.4051 14.4024 28.97C14.4289 29.5349 14.6788 30.0661 15.097 30.4468C15.5152 30.8275 16.0675 31.0265 16.6324 31H18.4924C18.7576 31 19.012 31.1054 19.1995 31.2929C19.3871 31.4804 19.4924 31.7348 19.4924 32C19.4924 32.2652 19.3871 32.5196 19.1995 32.7071C19.012 32.8946 18.7576 33 18.4924 33Z" fill="white"/>
<path d="M33.4924 36C32.7013 36 31.9279 35.7654 31.2702 35.3259C30.6124 34.8864 30.0997 34.2616 29.7969 33.5307C29.4942 32.7998 29.415 31.9956 29.5693 31.2196C29.7236 30.4437 30.1046 29.731 30.664 29.1716C31.2234 28.6122 31.9361 28.2312 32.7121 28.0769C33.488 27.9225 34.2923 28.0017 35.0232 28.3045C35.7541 28.6072 36.3788 29.1199 36.8183 29.7777C37.2578 30.4355 37.4924 31.2089 37.4924 32C37.4924 33.0609 37.071 34.0783 36.3209 34.8284C35.5707 35.5786 34.5533 36 33.4924 36ZM33.4924 30C33.0969 30 32.7102 30.1173 32.3813 30.3371C32.0524 30.5568 31.796 30.8692 31.6447 31.2346C31.4933 31.6001 31.4537 32.0022 31.5309 32.3902C31.608 32.7781 31.7985 33.1345 32.0782 33.4142C32.3579 33.6939 32.7143 33.8844 33.1023 33.9616C33.4902 34.0387 33.8923 33.9991 34.2578 33.8478C34.6233 33.6964 34.9356 33.44 35.1554 33.1111C35.3751 32.7822 35.4924 32.3956 35.4924 32C35.4924 31.4696 35.2817 30.9609 34.9066 30.5858C34.5316 30.2107 34.0229 30 33.4924 30Z" fill="white"/>
<path d="M21.4924 36C20.7013 36 19.9279 35.7654 19.2702 35.3259C18.6124 34.8864 18.0997 34.2616 17.7969 33.5307C17.4942 32.7998 17.415 31.9956 17.5693 31.2196C17.7236 30.4437 18.1046 29.731 18.664 29.1716C19.2234 28.6122 19.9361 28.2312 20.7121 28.0769C21.488 27.9225 22.2923 28.0017 23.0232 28.3045C23.7541 28.6072 24.3788 29.1199 24.8183 29.7777C25.2578 30.4355 25.4924 31.2089 25.4924 32C25.4924 33.0609 25.071 34.0783 24.3209 34.8284C23.5707 35.5786 22.5533 36 21.4924 36ZM21.4924 30C21.0969 30 20.7102 30.1173 20.3813 30.3371C20.0524 30.5568 19.796 30.8692 19.6447 31.2346C19.4933 31.6001 19.4537 32.0022 19.5309 32.3902C19.608 32.7781 19.7985 33.1345 20.0782 33.4142C20.3579 33.6939 20.7143 33.8844 21.1023 33.9616C21.4902 34.0387 21.8923 33.9991 22.2578 33.8478C22.6233 33.6964 22.9356 33.44 23.1554 33.1111C23.3751 32.7822 23.4924 32.3956 23.4924 32C23.4924 31.4696 23.2817 30.9609 22.9066 30.5858C22.5316 30.2107 22.0229 30 21.4924 30Z" fill="white"/>
<path d="M30.4924 33H24.4924C24.2272 33 23.9729 32.8946 23.7853 32.7071C23.5978 32.5196 23.4924 32.2652 23.4924 32C23.4924 31.7348 23.5978 31.4804 23.7853 31.2929C23.9729 31.1054 24.2272 31 24.4924 31H30.4924C30.7576 31 31.012 31.1054 31.1995 31.2929C31.3871 31.4804 31.4924 31.7348 31.4924 32C31.4924 32.2652 31.3871 32.5196 31.1995 32.7071C31.012 32.8946 30.7576 33 30.4924 33Z" fill="white"/>
</svg>
