<svg width="23" height="20" viewBox="0 0 23 20" fill="none" xmlns="http://www.w3.org/2000/svg">
<path d="M12.4578 18.0259C12.08 18.292 11.7549 18.5139 11.5018 18.6838C11.2484 18.5138 10.9231 18.2919 10.5448 18.0257C9.60069 17.3612 8.33363 16.4257 7.03594 15.3385C5.73453 14.2483 4.42414 13.0236 3.38006 11.7826C2.31909 10.5214 1.61653 9.3402 1.39506 8.33644L1.38346 8.28388L1.36679 8.2327C1.19479 7.70476 1.1 7.14132 1.1 6.55324C1.1 4.49554 2.22832 2.70677 3.89393 1.776C4.6713 1.34548 5.55429 1.1 6.49536 1.1C8.16346 1.1 9.65687 1.86382 10.6533 3.07216L11.504 4.10374L12.3522 3.0702C13.3421 1.86411 14.8361 1.1 16.5019 1.1C17.4466 1.1 18.3312 1.3459 19.1053 1.77563C20.7719 2.70816 21.9 4.49675 21.9 6.55324C21.9 7.13924 21.8044 7.70362 21.632 8.2327L21.6154 8.28372L21.6038 8.33613C21.382 9.34023 20.6793 10.5216 19.6188 11.7828C18.5751 13.0239 17.2653 14.2485 15.9646 15.3388C14.6676 16.4259 13.4014 17.3614 12.4578 18.0259Z" fill="#F36464" stroke="#F36464" stroke-width="2.2"/>
</svg>
