<svg width="29" height="25" viewBox="0 0 29 25" fill="none" xmlns="http://www.w3.org/2000/svg">
<path d="M15.4873 22.7616C14.9495 23.1459 14.4981 23.4568 14.1689 23.6796C13.8395 23.4568 13.3877 23.1458 12.8494 22.7614C11.6824 21.928 10.1154 20.754 8.50971 19.389C6.90035 18.021 5.27355 16.4791 3.97372 14.9113C2.65768 13.324 1.75773 11.8054 1.47019 10.4831L1.4589 10.4311L1.44265 10.3805C1.22183 9.6928 1.1 8.95824 1.1 8.19155C1.1 5.50821 2.55052 3.18297 4.67885 1.97633C5.67188 1.4182 6.79997 1.1 8.00153 1.1C10.1302 1.1 12.0397 2.0894 13.3154 3.65915L14.1711 4.71206L15.0243 3.65718C16.2922 2.08968 18.2026 1.1 20.3284 1.1C21.5342 1.1 22.6644 1.41863 23.6536 1.97594C25.783 3.18473 27.2333 5.50965 27.2333 8.19155C27.2333 8.95594 27.1104 9.69167 26.8892 10.3805L26.873 10.431L26.8618 10.4828C26.5738 11.8055 25.6738 13.3242 24.3582 14.9115C23.0588 16.4794 21.4328 18.0212 19.8244 19.3893C18.2195 20.7543 16.6535 21.9282 15.4873 22.7616Z" stroke="#545454" stroke-width="2.2"/>
</svg>
