<svg width="26" height="26" viewBox="0 0 26 26" fill="none" xmlns="http://www.w3.org/2000/svg">
<path d="M18.1135 15.4284C21.297 11.0212 20.2323 4.91862 15.737 1.79835C11.2417 -1.32191 5.01701 -0.278841 1.83433 4.12905C-1.34835 8.53619 -0.284418 14.638 4.21164 17.7583C7.42018 19.9854 11.6622 20.1568 15.0464 18.1975L22.3997 25.3633C23.1936 26.1827 24.5146 26.2155 25.3504 25.4371C26.1862 24.6594 26.2197 23.3643 25.4265 22.545C25.4014 22.5189 25.377 22.495 25.3504 22.4704L18.1135 15.4284ZM9.96784 16.0964C6.41556 16.0971 3.53556 13.2759 3.53328 9.79324C3.53252 6.31062 6.41024 3.4871 9.96328 3.48561C13.511 3.48412 16.3895 6.30093 16.3963 9.77908C16.4024 13.2624 13.5262 16.0904 9.9724 16.0964C9.97088 16.0964 9.97012 16.0964 9.96784 16.0964Z" fill="white"/>
</svg>
