<svg width="34" height="35" viewBox="0 0 34 35" fill="none" xmlns="http://www.w3.org/2000/svg">
<path fill-rule="evenodd" clip-rule="evenodd" d="M17 0C7.61116 0 0 7.6645 0 17.1191C0 26.5738 7.61116 34.2383 17 34.2383C26.3888 34.2383 34 26.5738 34 17.1191C34 7.6645 26.3888 0 17 0ZM18.3842 22.5232C18.2165 22.7012 17.8893 22.7371 17.8893 22.7371H16.8055C16.8055 22.7371 14.4144 22.8791 12.308 20.712C10.0109 18.3476 7.98259 13.6564 7.98259 13.6564C7.98259 13.6564 7.86552 13.3487 7.99234 13.2006C8.13513 13.0331 8.52448 13.0226 8.52448 13.0226L11.1151 13.0059C11.1151 13.0059 11.359 13.0454 11.5337 13.1725C11.6783 13.2777 11.759 13.4732 11.759 13.4732C11.759 13.4732 12.1776 14.52 12.7319 15.4668C13.8149 17.3157 14.3186 17.7199 14.6858 17.5217C15.2215 17.2333 15.061 14.9083 15.061 14.9083C15.061 14.9083 15.0707 14.065 14.7913 13.6889C14.5749 13.3978 14.167 13.3128 13.9869 13.2891C13.8406 13.2698 14.08 12.9349 14.3905 12.785C14.857 12.5597 15.68 12.5466 16.6529 12.5562C17.4112 12.5641 17.6294 12.6106 17.9256 12.6816C18.6131 12.8456 18.5917 13.3711 18.5454 14.5054C18.5315 14.8446 18.5154 15.2382 18.5154 15.693C18.5154 15.7952 18.5124 15.9041 18.5093 16.0161C18.4932 16.5972 18.4748 17.2626 18.8622 17.5103C19.0609 17.6366 19.546 17.5287 20.7602 15.4913C21.3358 14.5252 21.7668 13.3899 21.7668 13.3899C21.7668 13.3899 21.8617 13.1874 22.0081 13.1006C22.1579 13.0121 22.3602 13.0393 22.3602 13.0393L25.0865 13.0226C25.0865 13.0226 25.906 12.9253 26.0381 13.2917C26.1774 13.6748 25.7322 14.5708 24.6182 16.0384C23.5611 17.4314 23.0469 17.9439 23.0946 18.3975C23.1293 18.7286 23.4636 19.0283 24.1047 19.6161C25.4437 20.845 25.8026 21.4915 25.8889 21.6469C25.896 21.6598 25.9013 21.6693 25.9051 21.6754C26.5055 22.66 25.239 22.7371 25.239 22.7371L22.8169 22.7704C22.8169 22.7704 22.2972 22.8721 21.6125 22.4075C21.2538 22.1643 20.9034 21.7671 20.5695 21.3888C20.0597 20.811 19.5888 20.2773 19.1868 20.4034C18.5119 20.6155 18.5323 22.0524 18.5323 22.0524C18.5323 22.0524 18.5376 22.3601 18.3842 22.5232Z" fill="#FF1616"/>
</svg>
