<svg width="34" height="35" viewBox="0 0 34 35" fill="none" xmlns="http://www.w3.org/2000/svg">
<path fill-rule="evenodd" clip-rule="evenodd" d="M0 17.1191C0 7.6645 7.61116 0 17 0C26.3888 0 34 7.6645 34 17.1191C34 26.5738 26.3888 34.2383 17 34.2383C7.61116 34.2383 0 26.5738 0 17.1191ZM16.9885 17.394C19.4953 17.394 21.5331 15.4129 21.5331 12.9774C21.5331 10.5412 19.4953 8.55957 16.9885 8.55957C14.4822 8.55957 12.4438 10.5412 12.4438 12.9774C12.4438 15.4129 14.4822 17.394 16.9885 17.394ZM21.4778 19.9374C20.6561 20.4391 19.7639 20.7948 18.8388 20.9997L21.3794 23.4695C21.8998 23.9744 21.8998 24.7943 21.3794 25.2997C20.8595 25.8051 20.0168 25.8051 19.4974 25.2997L16.9995 22.8727L14.5038 25.2997C14.2436 25.5521 13.9026 25.6785 13.5616 25.6785C13.2212 25.6785 12.8808 25.5521 12.6205 25.2997C12.1006 24.7943 12.1006 23.9749 12.62 23.4695L15.1608 20.9997C14.2357 20.7948 13.3436 20.4385 12.5218 19.9374C11.8999 19.5562 11.7131 18.7577 12.105 18.1527C12.4957 17.5469 13.3175 17.3645 13.9404 17.7456C15.8009 18.8833 18.1976 18.8835 20.0592 17.7456C20.6822 17.3645 21.5036 17.5469 21.8952 18.1527C22.287 18.7572 22.0997 19.5562 21.4778 19.9374Z" fill="#FF1616"/>
<path d="M16.9884 11.1487C18.0261 11.1487 18.8701 11.9689 18.8701 12.9775C18.8701 13.9854 18.0261 14.8061 16.9884 14.8061C15.9516 14.8061 15.1068 13.9854 15.1068 12.9775C15.1068 11.9689 15.9516 11.1487 16.9884 11.1487Z" fill="#FF1616"/>
</svg>
