<svg width="23" height="26" viewBox="0 0 23 26" fill="none" xmlns="http://www.w3.org/2000/svg">
<path d="M11.5 11.3044C10.3628 11.3044 9.25106 10.9729 8.30547 10.3519C7.35989 9.73078 6.6229 8.84803 6.1877 7.81522C5.75249 6.78241 5.63862 5.64594 5.86049 4.54952C6.08235 3.4531 6.62999 2.44597 7.43414 1.6555C8.23829 0.865021 9.26284 0.3267 10.3782 0.108608C11.4936 -0.109484 12.6498 0.00244901 13.7004 0.430251C14.7511 0.858054 15.6491 1.58251 16.281 2.51201C16.9128 3.44151 17.25 4.53431 17.25 5.65221C17.25 7.15127 16.6442 8.58893 15.5659 9.64893C14.4875 10.7089 13.025 11.3044 11.5 11.3044ZM11.5 2.26089C10.8177 2.26089 10.1506 2.45978 9.58328 2.83243C9.01593 3.20507 8.57374 3.73472 8.31262 4.35441C8.05149 4.97409 7.98317 5.65598 8.11629 6.31383C8.24941 6.97168 8.57799 7.57596 9.06048 8.05024C9.54297 8.52453 10.1577 8.84752 10.8269 8.97838C11.4962 9.10923 12.1899 9.04207 12.8203 8.78539C13.4507 8.52871 13.9895 8.09403 14.3686 7.53633C14.7477 6.97863 14.95 6.32295 14.95 5.65221C14.95 4.75278 14.5865 3.89018 13.9395 3.25418C13.2925 2.61819 12.415 2.26089 11.5 2.26089Z" fill="#545454"/>
<path d="M21.85 26.0001H1.15C0.845001 26.0001 0.552494 25.881 0.336827 25.669C0.12116 25.457 0 25.1695 0 24.8697V21.4784C0 19.0799 0.969283 16.7796 2.69462 15.0836C4.41995 13.3876 6.76001 12.4348 9.2 12.4348H13.8C16.24 12.4348 18.58 13.3876 20.3054 15.0836C22.0307 16.7796 23 19.0799 23 21.4784V24.8697C23 25.1695 22.8788 25.457 22.6632 25.669C22.4475 25.881 22.155 26.0001 21.85 26.0001ZM2.3 23.7392H20.7V21.4784C20.7 19.6795 19.973 17.9543 18.679 16.6823C17.385 15.4103 15.63 14.6957 13.8 14.6957H9.2C7.37001 14.6957 5.61496 15.4103 4.32096 16.6823C3.02696 17.9543 2.3 19.6795 2.3 21.4784V23.7392Z" fill="#545454"/>
</svg>
