<svg width="30" height="30" viewBox="0 0 30 30" fill="none" xmlns="http://www.w3.org/2000/svg">
<path fill-rule="evenodd" clip-rule="evenodd" d="M15 5.96007e-07C6.71573 -1.28227e-07 3.94292e-06 6.71573 3.21869e-06 15C2.49446e-06 23.2843 6.71573 30 15 30C23.2843 30 30 23.2843 30 15C30 6.71573 23.2843 1.32024e-06 15 5.96007e-07ZM14.4698 8.60822C13.8841 8.02244 12.9343 8.02244 12.3485 8.60822C11.7627 9.19401 11.7627 10.1438 12.3485 10.7295L16.5912 14.9722L12.3485 19.2148C11.7627 19.8006 11.7627 20.7504 12.3485 21.3361C12.9343 21.9219 13.8841 21.9219 14.4698 21.3361L19.7731 16.0328C20.3589 15.4471 20.3589 14.4973 19.7731 13.9115L14.4698 8.60822Z" fill="white"/>
</svg>
